<svg xmlns="http://www.w3.org/2000/svg" xmlns:xlink="http://www.w3.org/1999/xlink" width="1080" zoomAndPan="magnify" viewBox="0 0 810 809.999993" height="1080" preserveAspectRatio="xMidYMid meet" version="1.0"><defs><g/></defs><g fill="#000000" fill-opacity="0.4"><g transform="translate(27.699985, 581.513492)"><g><path d="M 258.015625 -116 C 263.785156 -93.21875 262.015625 -72.84375 252.703125 -54.875 C 243.398438 -36.90625 228.160156 -24.390625 206.984375 -17.328125 C 183.234375 -8.984375 154.671875 -4.171875 121.296875 -2.890625 C 106.210938 -2.242188 92.816406 -5.691406 81.109375 -13.234375 C 69.398438 -20.773438 60.015625 -28.398438 52.953125 -36.109375 C 45.242188 -44.765625 40.507812 -54.066406 38.75 -64.015625 C 36.988281 -73.960938 38.515625 -82.953125 43.328125 -90.984375 C 51.023438 -104.453125 63.695312 -111.1875 81.34375 -111.1875 C 86.15625 -111.1875 90.972656 -110.707031 95.796875 -109.75 C 97.710938 -109.101562 99.796875 -108.539062 102.046875 -108.0625 C 104.296875 -107.582031 106.382812 -107.019531 108.3125 -106.375 C 116.96875 -103.8125 125.789062 -101.726562 134.78125 -100.125 C 143.769531 -98.519531 153.238281 -99.160156 163.1875 -102.046875 L 179.0625 -106.859375 L 176.65625 -112.15625 C 172.488281 -122.101562 166.550781 -129.398438 158.84375 -134.046875 C 151.144531 -138.703125 143.125 -142.316406 134.78125 -144.890625 C 101.726562 -154.835938 71.882812 -173.289062 45.25 -200.25 C 25.675781 -220.144531 16.53125 -242.445312 17.8125 -267.15625 C 19.09375 -291.539062 30.164062 -312.238281 51.03125 -329.25 C 90.820312 -361.976562 135.90625 -372.40625 186.28125 -360.53125 C 208.75 -355.40625 225.4375 -344.015625 236.34375 -326.359375 C 240.519531 -318.984375 242.925781 -310.960938 243.5625 -302.296875 C 243.5625 -299.722656 243.238281 -296.832031 242.59375 -293.625 C 241.957031 -290.414062 240.515625 -288.007812 238.265625 -286.40625 C 234.421875 -283.519531 228.488281 -283.679688 220.46875 -286.890625 C 210.832031 -290.742188 199.113281 -294.351562 185.3125 -297.71875 C 171.519531 -301.09375 156.921875 -301.015625 141.515625 -297.484375 C 134.140625 -295.878906 127 -293.472656 120.09375 -290.265625 C 113.195312 -287.054688 106.859375 -283.6875 101.078125 -280.15625 C 94.347656 -276.300781 90.984375 -271.328125 90.984375 -265.234375 C 90.984375 -259.128906 94.191406 -253.992188 100.609375 -249.828125 L 111.1875 -243.5625 C 119.851562 -238.425781 128.597656 -233.367188 137.421875 -228.390625 C 146.253906 -223.421875 155.320312 -219.015625 164.625 -215.171875 C 215.96875 -194.628906 247.097656 -161.570312 258.015625 -116 Z M 258.015625 -116 "/></g></g></g><g fill="#000000" fill-opacity="0.4"><g transform="translate(306.890835, 581.513492)"><g><path d="M 224.796875 -184.84375 C 238.597656 -156.601562 243.410156 -126.757812 239.234375 -95.3125 C 237.304688 -82.15625 232.492188 -69.957031 224.796875 -58.71875 C 217.097656 -47.488281 207.390625 -38.019531 195.671875 -30.3125 C 183.960938 -22.613281 171.125 -17.160156 157.15625 -13.953125 C 143.195312 -10.742188 129 -10.265625 114.5625 -12.515625 C 112 -12.835938 109.351562 -13.238281 106.625 -13.71875 C 103.894531 -14.195312 100.601562 -14.757812 96.75 -15.40625 C 96.75 -1.925781 96.828125 11.148438 96.984375 23.828125 C 97.148438 36.503906 97.070312 48.9375 96.75 61.125 C 96.75 66.257812 96.425781 71.394531 95.78125 76.53125 C 95.144531 81.664062 94.1875 86.640625 92.90625 91.453125 C 90.007812 100.441406 84.867188 107.257812 77.484375 111.90625 C 70.109375 116.5625 62.09375 118.570312 53.4375 117.9375 C 44.769531 116.96875 37.226562 113.515625 30.8125 107.578125 C 24.394531 101.640625 20.222656 94.179688 18.296875 85.203125 C 18.296875 84.878906 18.210938 84.394531 18.046875 83.75 C 17.890625 83.113281 17.8125 82.472656 17.8125 81.828125 C 19.738281 57.765625 20.140625 33.617188 19.015625 9.390625 C 17.890625 -14.835938 17.644531 -38.984375 18.28125 -63.046875 C 18.925781 -87.117188 22.457031 -111.191406 28.875 -135.265625 C 32.082031 -147.140625 34.410156 -159.332031 35.859375 -171.84375 C 37.304688 -184.363281 39.472656 -196.71875 42.359375 -208.90625 C 44.609375 -218.21875 48.941406 -223.675781 55.359375 -225.28125 C 61.773438 -226.882812 68.515625 -224.316406 75.578125 -217.578125 C 76.210938 -216.929688 76.929688 -216.207031 77.734375 -215.40625 C 78.535156 -214.601562 79.257812 -213.722656 79.90625 -212.765625 C 87.601562 -215.972656 95.222656 -219.179688 102.765625 -222.390625 C 110.304688 -225.597656 118.085938 -228.164062 126.109375 -230.09375 C 148.253906 -236.1875 167.671875 -235.300781 184.359375 -227.4375 C 201.046875 -219.582031 214.523438 -205.382812 224.796875 -184.84375 Z M 122.75 -95.796875 C 144.882812 -93.867188 159.5625 -97.878906 166.78125 -107.828125 C 174.007812 -117.773438 175.21875 -134.140625 170.40625 -156.921875 C 167.507812 -171.046875 158.679688 -176.019531 143.921875 -171.84375 C 133.648438 -169.28125 125.304688 -164.707031 118.890625 -158.125 C 112.472656 -151.550781 106.859375 -143.929688 102.046875 -135.265625 C 93.378906 -119.859375 90.328125 -109.664062 92.890625 -104.6875 C 95.460938 -99.71875 105.414062 -96.753906 122.75 -95.796875 Z M 122.75 -95.796875 "/></g></g></g><g fill="#000000" fill-opacity="0.4"><g transform="translate(565.864465, 581.513492)"><g><path d="M 219.5 -242.125 C 228.488281 -237.945312 234.828125 -231.207031 238.515625 -221.90625 C 242.203125 -212.601562 241.960938 -201.851562 237.796875 -189.65625 C 232.660156 -173.925781 227.125 -158.28125 221.1875 -142.71875 C 215.25 -127.15625 208.585938 -111.832031 201.203125 -96.75 C 185.484375 -64.019531 169.28125 -31.53125 152.59375 0.71875 C 135.90625 32.96875 119.21875 65.140625 102.53125 97.234375 C 99.957031 102.046875 97.066406 106.859375 93.859375 111.671875 C 90.648438 116.484375 86.800781 120.015625 82.3125 122.265625 C 71.40625 128.046875 59.691406 129.648438 47.171875 127.078125 C 40.753906 125.796875 35.78125 122.347656 32.25 116.734375 C 28.71875 111.117188 27.113281 104.941406 27.4375 98.203125 C 27.4375 92.421875 27.914062 86.640625 28.875 80.859375 C 29.84375 75.085938 31.289062 69.632812 33.21875 64.5 C 38.351562 51.664062 43.644531 38.828125 49.09375 25.984375 C 54.550781 13.148438 60.328125 0.476562 66.421875 -12.03125 C 68.347656 -16.84375 69.390625 -21.175781 69.546875 -25.03125 C 69.710938 -28.882812 68.671875 -33.21875 66.421875 -38.03125 C 59.046875 -54.71875 51.664062 -71.484375 44.28125 -88.328125 C 36.90625 -105.171875 30.328125 -122.097656 24.546875 -139.109375 C 21.335938 -148.734375 19.570312 -158.679688 19.25 -168.953125 C 18.925781 -179.222656 18.445312 -189.332031 17.8125 -199.28125 C 17.488281 -205.375 18.445312 -210.988281 20.6875 -216.125 C 22.9375 -221.257812 27.429688 -224.789062 34.171875 -226.71875 C 41.554688 -228.644531 47.332031 -227.601562 51.5 -223.59375 C 55.675781 -219.582031 59.046875 -214.6875 61.609375 -208.90625 C 67.066406 -197.351562 72.363281 -185.71875 77.5 -174 C 82.632812 -162.289062 87.929688 -150.5 93.390625 -138.625 C 94.992188 -135.414062 96.835938 -132.125 98.921875 -128.75 C 101.003906 -125.382812 103.332031 -121.296875 105.90625 -116.484375 C 109.425781 -122.898438 112.628906 -128.675781 115.515625 -133.8125 C 118.410156 -138.945312 121.300781 -143.921875 124.1875 -148.734375 C 131.570312 -160.929688 138.875 -173.125 146.09375 -185.3125 C 153.3125 -197.507812 160.769531 -209.546875 168.46875 -221.421875 C 175.53125 -232.335938 183.550781 -239.554688 192.53125 -243.078125 C 201.519531 -246.609375 210.507812 -246.289062 219.5 -242.125 Z M 219.5 -242.125 "/></g></g></g><g fill="#000000" fill-opacity="1"><g transform="translate(6.426482, 560.239994)"><g><path d="M 258.015625 -116 C 263.785156 -93.21875 262.015625 -72.84375 252.703125 -54.875 C 243.398438 -36.90625 228.160156 -24.390625 206.984375 -17.328125 C 183.234375 -8.984375 154.671875 -4.171875 121.296875 -2.890625 C 106.210938 -2.242188 92.816406 -5.691406 81.109375 -13.234375 C 69.398438 -20.773438 60.015625 -28.398438 52.953125 -36.109375 C 45.242188 -44.765625 40.507812 -54.066406 38.75 -64.015625 C 36.988281 -73.960938 38.515625 -82.953125 43.328125 -90.984375 C 51.023438 -104.453125 63.695312 -111.1875 81.34375 -111.1875 C 86.15625 -111.1875 90.972656 -110.707031 95.796875 -109.75 C 97.710938 -109.101562 99.796875 -108.539062 102.046875 -108.0625 C 104.296875 -107.582031 106.382812 -107.019531 108.3125 -106.375 C 116.96875 -103.8125 125.789062 -101.726562 134.78125 -100.125 C 143.769531 -98.519531 153.238281 -99.160156 163.1875 -102.046875 L 179.0625 -106.859375 L 176.65625 -112.15625 C 172.488281 -122.101562 166.550781 -129.398438 158.84375 -134.046875 C 151.144531 -138.703125 143.125 -142.316406 134.78125 -144.890625 C 101.726562 -154.835938 71.882812 -173.289062 45.25 -200.25 C 25.675781 -220.144531 16.53125 -242.445312 17.8125 -267.15625 C 19.09375 -291.539062 30.164062 -312.238281 51.03125 -329.25 C 90.820312 -361.976562 135.90625 -372.40625 186.28125 -360.53125 C 208.75 -355.40625 225.4375 -344.015625 236.34375 -326.359375 C 240.519531 -318.984375 242.925781 -310.960938 243.5625 -302.296875 C 243.5625 -299.722656 243.238281 -296.832031 242.59375 -293.625 C 241.957031 -290.414062 240.515625 -288.007812 238.265625 -286.40625 C 234.421875 -283.519531 228.488281 -283.679688 220.46875 -286.890625 C 210.832031 -290.742188 199.113281 -294.351562 185.3125 -297.71875 C 171.519531 -301.09375 156.921875 -301.015625 141.515625 -297.484375 C 134.140625 -295.878906 127 -293.472656 120.09375 -290.265625 C 113.195312 -287.054688 106.859375 -283.6875 101.078125 -280.15625 C 94.347656 -276.300781 90.984375 -271.328125 90.984375 -265.234375 C 90.984375 -259.128906 94.191406 -253.992188 100.609375 -249.828125 L 111.1875 -243.5625 C 119.851562 -238.425781 128.597656 -233.367188 137.421875 -228.390625 C 146.253906 -223.421875 155.320312 -219.015625 164.625 -215.171875 C 215.96875 -194.628906 247.097656 -161.570312 258.015625 -116 Z M 258.015625 -116 "/></g></g></g><g fill="#000000" fill-opacity="1"><g transform="translate(285.617333, 560.239994)"><g><path d="M 224.796875 -184.84375 C 238.597656 -156.601562 243.410156 -126.757812 239.234375 -95.3125 C 237.304688 -82.15625 232.492188 -69.957031 224.796875 -58.71875 C 217.097656 -47.488281 207.390625 -38.019531 195.671875 -30.3125 C 183.960938 -22.613281 171.125 -17.160156 157.15625 -13.953125 C 143.195312 -10.742188 129 -10.265625 114.5625 -12.515625 C 112 -12.835938 109.351562 -13.238281 106.625 -13.71875 C 103.894531 -14.195312 100.601562 -14.757812 96.75 -15.40625 C 96.75 -1.925781 96.828125 11.148438 96.984375 23.828125 C 97.148438 36.503906 97.070312 48.9375 96.75 61.125 C 96.75 66.257812 96.425781 71.394531 95.78125 76.53125 C 95.144531 81.664062 94.1875 86.640625 92.90625 91.453125 C 90.007812 100.441406 84.867188 107.257812 77.484375 111.90625 C 70.109375 116.5625 62.09375 118.570312 53.4375 117.9375 C 44.769531 116.96875 37.226562 113.515625 30.8125 107.578125 C 24.394531 101.640625 20.222656 94.179688 18.296875 85.203125 C 18.296875 84.878906 18.210938 84.394531 18.046875 83.75 C 17.890625 83.113281 17.8125 82.472656 17.8125 81.828125 C 19.738281 57.765625 20.140625 33.617188 19.015625 9.390625 C 17.890625 -14.835938 17.644531 -38.984375 18.28125 -63.046875 C 18.925781 -87.117188 22.457031 -111.191406 28.875 -135.265625 C 32.082031 -147.140625 34.410156 -159.332031 35.859375 -171.84375 C 37.304688 -184.363281 39.472656 -196.71875 42.359375 -208.90625 C 44.609375 -218.21875 48.941406 -223.675781 55.359375 -225.28125 C 61.773438 -226.882812 68.515625 -224.316406 75.578125 -217.578125 C 76.210938 -216.929688 76.929688 -216.207031 77.734375 -215.40625 C 78.535156 -214.601562 79.257812 -213.722656 79.90625 -212.765625 C 87.601562 -215.972656 95.222656 -219.179688 102.765625 -222.390625 C 110.304688 -225.597656 118.085938 -228.164062 126.109375 -230.09375 C 148.253906 -236.1875 167.671875 -235.300781 184.359375 -227.4375 C 201.046875 -219.582031 214.523438 -205.382812 224.796875 -184.84375 Z M 122.75 -95.796875 C 144.882812 -93.867188 159.5625 -97.878906 166.78125 -107.828125 C 174.007812 -117.773438 175.21875 -134.140625 170.40625 -156.921875 C 167.507812 -171.046875 158.679688 -176.019531 143.921875 -171.84375 C 133.648438 -169.28125 125.304688 -164.707031 118.890625 -158.125 C 112.472656 -151.550781 106.859375 -143.929688 102.046875 -135.265625 C 93.378906 -119.859375 90.328125 -109.664062 92.890625 -104.6875 C 95.460938 -99.71875 105.414062 -96.753906 122.75 -95.796875 Z M 122.75 -95.796875 "/></g></g></g><g fill="#000000" fill-opacity="1"><g transform="translate(544.590963, 560.239994)"><g><path d="M 219.5 -242.125 C 228.488281 -237.945312 234.828125 -231.207031 238.515625 -221.90625 C 242.203125 -212.601562 241.960938 -201.851562 237.796875 -189.65625 C 232.660156 -173.925781 227.125 -158.28125 221.1875 -142.71875 C 215.25 -127.15625 208.585938 -111.832031 201.203125 -96.75 C 185.484375 -64.019531 169.28125 -31.53125 152.59375 0.71875 C 135.90625 32.96875 119.21875 65.140625 102.53125 97.234375 C 99.957031 102.046875 97.066406 106.859375 93.859375 111.671875 C 90.648438 116.484375 86.800781 120.015625 82.3125 122.265625 C 71.40625 128.046875 59.691406 129.648438 47.171875 127.078125 C 40.753906 125.796875 35.78125 122.347656 32.25 116.734375 C 28.71875 111.117188 27.113281 104.941406 27.4375 98.203125 C 27.4375 92.421875 27.914062 86.640625 28.875 80.859375 C 29.84375 75.085938 31.289062 69.632812 33.21875 64.5 C 38.351562 51.664062 43.644531 38.828125 49.09375 25.984375 C 54.550781 13.148438 60.328125 0.476562 66.421875 -12.03125 C 68.347656 -16.84375 69.390625 -21.175781 69.546875 -25.03125 C 69.710938 -28.882812 68.671875 -33.21875 66.421875 -38.03125 C 59.046875 -54.71875 51.664062 -71.484375 44.28125 -88.328125 C 36.90625 -105.171875 30.328125 -122.097656 24.546875 -139.109375 C 21.335938 -148.734375 19.570312 -158.679688 19.25 -168.953125 C 18.925781 -179.222656 18.445312 -189.332031 17.8125 -199.28125 C 17.488281 -205.375 18.445312 -210.988281 20.6875 -216.125 C 22.9375 -221.257812 27.429688 -224.789062 34.171875 -226.71875 C 41.554688 -228.644531 47.332031 -227.601562 51.5 -223.59375 C 55.675781 -219.582031 59.046875 -214.6875 61.609375 -208.90625 C 67.066406 -197.351562 72.363281 -185.71875 77.5 -174 C 82.632812 -162.289062 87.929688 -150.5 93.390625 -138.625 C 94.992188 -135.414062 96.835938 -132.125 98.921875 -128.75 C 101.003906 -125.382812 103.332031 -121.296875 105.90625 -116.484375 C 109.425781 -122.898438 112.628906 -128.675781 115.515625 -133.8125 C 118.410156 -138.945312 121.300781 -143.921875 124.1875 -148.734375 C 131.570312 -160.929688 138.875 -173.125 146.09375 -185.3125 C 153.3125 -197.507812 160.769531 -209.546875 168.46875 -221.421875 C 175.53125 -232.335938 183.550781 -239.554688 192.53125 -243.078125 C 201.519531 -246.609375 210.507812 -246.289062 219.5 -242.125 Z M 219.5 -242.125 "/></g></g></g></svg>